<svg width="23" height="23" viewBox="0 0 23 23" fill="none" xmlns="http://www.w3.org/2000/svg">
<path d="M21.5 12.546C22.3284 12.546 23 11.8744 23 11.046C23 10.2175 22.3284 9.54596 21.5 9.54596L21.5 11.046L21.5 12.546ZM0.439341 9.9853C-0.146446 10.5711 -0.146446 11.5208 0.43934 12.1066L9.98528 21.6526C10.5711 22.2383 11.5208 22.2383 12.1066 21.6526C12.6924 21.0668 12.6924 20.117 12.1066 19.5312L3.62132 11.046L12.1066 2.56068C12.6924 1.97489 12.6924 1.02514 12.1066 0.439357C11.5208 -0.14643 10.5711 -0.14643 9.98528 0.439357L0.439341 9.9853ZM21.5 11.046L21.5 9.54596L1.5 9.54596L1.5 11.046L1.5 12.546L21.5 12.546L21.5 11.046Z" fill="white"/>
</svg>
