<svg width="23" height="23" viewBox="0 0 23 23" fill="none" xmlns="http://www.w3.org/2000/svg">
<path d="M1.5 9.54596C0.671573 9.54596 1.44847e-07 10.2175 0 11.046C-1.44847e-07 11.8744 0.671573 12.546 1.5 12.546L1.5 11.046L1.5 9.54596ZM22.5607 12.1066C23.1464 11.5208 23.1464 10.5711 22.5607 9.9853L13.0147 0.43936C12.4289 -0.146427 11.4792 -0.146427 10.8934 0.439359C10.3076 1.02515 10.3076 1.97489 10.8934 2.56068L19.3787 11.046L10.8934 19.5312C10.3076 20.117 10.3076 21.0668 10.8934 21.6526C11.4792 22.2383 12.4289 22.2383 13.0147 21.6526L22.5607 12.1066ZM1.5 11.046L1.5 12.546L21.5 12.546L21.5 11.046L21.5 9.54596L1.5 9.54596L1.5 11.046Z" fill="white"/>
</svg>
