<svg width="49" height="49" viewBox="0 0 49 49" fill="none" xmlns="http://www.w3.org/2000/svg">
<path d="M24.56 0H24.43C10.9377 0 0 10.9377 0 24.43V24.56C0 38.0523 10.9377 48.99 24.43 48.99H24.56C38.0523 48.99 48.99 38.0523 48.99 24.56V24.43C48.99 10.9377 38.0523 0 24.56 0Z" fill="#B0E000"/>
<path d="M32.07 9.96H16.91C12.72 9.96 9.32 13.37 9.32 17.55V31.42C9.32 35.61 12.73 39.01 16.91 39.01H32.07C36.26 39.01 39.66 35.6 39.66 31.42V17.55C39.66 13.36 36.25 9.96 32.07 9.96ZM12 17.56C12 14.85 14.2 12.64 16.92 12.64H32.08C34.79 12.64 37 14.84 37 17.56V31.43C37 34.14 34.8 36.35 32.08 36.35H16.92C14.21 36.35 12 34.15 12 31.43V17.56Z" fill="white"/>
<path d="M24.49 31.55C28.38 31.55 31.55 28.38 31.55 24.49C31.55 20.6 28.38 17.43 24.49 17.43C20.6 17.43 17.43 20.6 17.43 24.49C17.43 28.38 20.6 31.55 24.49 31.55ZM24.49 20.11C26.91 20.11 28.87 22.08 28.87 24.49C28.87 26.9 26.9 28.87 24.49 28.87C22.08 28.87 20.11 26.9 20.11 24.49C20.11 22.08 22.08 20.11 24.49 20.11Z" fill="white"/>
<path d="M32.21 18.57C33.26 18.57 34.11 17.72 34.11 16.67C34.11 15.62 33.26 14.77 32.21 14.77C31.16 14.77 30.31 15.62 30.31 16.67C30.31 17.72 31.16 18.57 32.21 18.57Z" fill="white"/>
</svg>
