<svg width="200" height="27" viewBox="0 0 200 27" fill="none" xmlns="http://www.w3.org/2000/svg">
<path d="M24.4075 21.3493V13.8237H1.16547V17.0686H18.2587V18.4017H1.16547V26.0465H24.6987V22.7421H7.31418V21.3493H24.4075Z" fill="#000082"/>
<path d="M1.27252 10.835C2.13539 11.7165 3.28556 12.1634 4.69119 12.1634H10.5152C11.8802 12.1634 13.005 11.7074 13.8583 10.808C14.7144 9.90597 15.1579 8.74976 15.1766 7.37172V5.23447C15.1579 3.8595 14.7144 2.70323 13.8583 1.80111C13.0049 0.901951 11.8801 0.445997 10.5152 0.445997H4.69119C3.26839 0.464943 2.11232 0.916743 1.25803 1.78905C0.40508 2.65988 -0.0180255 3.81797 0.000588399 5.23129V7.37809C-0.0180255 8.79186 0.409929 9.95496 1.27252 10.835ZM5.50646 5.32357C5.50646 4.92735 5.60337 4.63014 5.79771 4.4318C5.99154 4.23398 6.28267 4.13436 6.67128 4.13436H8.65137C9.03953 4.13436 9.33073 4.23398 9.52495 4.4318C9.71889 4.63014 9.81619 4.92735 9.81619 5.32357V7.34503C9.81619 7.74187 9.71883 8.03909 9.52495 8.23697C9.33073 8.43525 9.03953 8.53419 8.65137 8.53419H6.67128C6.28267 8.53419 5.99154 8.43525 5.79771 8.23697C5.60337 8.03909 5.50646 7.74187 5.50646 7.34503V5.32357Z" fill="#000082"/>
<path d="M26.8535 4.13208H24.4075V0.297218H18.4044V12.3418H24.4075V7.823H26.8535V4.13208Z" fill="#000082"/>
<path d="M28.9458 25.4517H46.3348V21.0476H37.5988V11.5641H32.3236V21.0476H28.9458V25.4517Z" fill="#000082"/>
<path d="M45.5776 4.28314V0.86201H29.6738V5.26639H40.2568L40.2439 5.51445C40.224 5.89724 40.1843 6.32338 40.1259 6.78098L38.989 17.6037H44.2615L45.3751 6.96333C45.5095 5.68605 45.5776 4.78427 45.5776 4.28314Z" fill="#000082"/>
<path d="M55.9735 10.1077H53.5273V0.594436H47.9609V26.0465H53.5273V14.809H55.9735V10.1077Z" fill="#000082"/>
<path d="M68.0268 0.445997H63.0764C61.6713 0.445997 60.4966 0.917881 59.5851 1.84845C58.6741 2.77845 58.2217 3.96658 58.2403 5.37978V9.10217C58.2217 10.5155 58.6741 11.7038 59.5851 12.6337C60.4967 13.5644 61.6713 14.0362 63.0764 14.0362H68.0268C69.3918 14.0362 70.5412 13.5552 71.4429 12.6065C72.3472 11.6549 72.8152 10.4737 72.8338 9.09579V5.38291C72.8152 4.00874 72.3472 2.8276 71.4429 1.87559C70.5408 0.926984 69.3915 0.445997 68.0268 0.445997ZM67.7042 9.12891C67.7042 9.58816 67.5835 9.94415 67.3455 10.1871C67.1073 10.4302 66.7585 10.5534 66.3087 10.5534H64.911C64.4606 10.5534 64.1117 10.4301 63.8741 10.187C63.6362 9.94477 63.5154 9.58867 63.5154 9.12891V5.41289C63.5154 4.95347 63.6362 4.59731 63.8744 4.35437C64.1123 4.11137 64.4611 3.9882 64.911 3.9882H66.3087C66.758 3.9882 67.1068 4.11132 67.3453 4.35414C67.5836 4.59799 67.7042 4.95404 67.7042 5.41289V9.12891Z" fill="#000082"/>
<path d="M79.2961 15.637H63.6297C62.3392 15.637 61.301 16.0195 60.5441 16.7739C59.7883 17.5268 59.4051 18.5954 59.4051 19.9499V21.7334C59.4051 23.0881 59.7883 24.1566 60.544 24.9093C61.301 25.6639 62.3392 26.0465 63.6297 26.0465H79.2961C80.5863 26.0465 81.6245 25.6639 82.3819 24.9093C83.1376 24.1561 83.5208 23.0876 83.5208 21.7334V19.9499C83.5208 18.5959 83.1376 17.5273 82.3818 16.7739C81.6245 16.0196 80.5863 15.637 79.2961 15.637ZM77.8087 21.1984C77.8087 21.9829 77.3856 22.4149 76.6171 22.4149H66.3087C65.5402 22.4149 65.117 21.9829 65.117 21.1984V20.3364C65.117 19.5518 65.5402 19.1198 66.3087 19.1198H76.6171C77.3856 19.1198 77.8087 19.5518 77.8087 20.3364V21.1984Z" fill="#000082"/>
<path d="M83.2296 14.1849V0.297218H77.2263V2.19989H74.2562V6.0096H77.2263V8.41306H74.2562V12.2228H77.2263V14.1849H83.2296Z" fill="#000082"/>
<path d="M87.1855 25.4517H104.574V21.0476H95.8385V11.5641H90.5633V21.0476H87.1855V25.4517Z" fill="#000082"/>
<path d="M103.817 4.28314V0.86201H87.9135V5.26639H98.4965L98.4836 5.51445C98.4637 5.89724 98.424 6.32338 98.3656 6.78098L97.2287 17.6037H102.501L103.615 6.96333C103.749 5.68639 103.817 4.78466 103.817 4.28314Z" fill="#000082"/>
<path d="M114.213 10.1077H111.767V0.594436H106.201V26.0465H111.767V14.809H114.213V10.1077Z" fill="#000082"/>
<path d="M116.334 5.50427H131.947V1.75395H127.142V0H121.43V1.75395H116.334V5.50427Z" fill="#000082"/>
<path d="M140.887 21.8525V18.6098H117.353V22.3898H134.846L134.825 22.6452C134.805 22.8872 134.775 23.1703 134.736 23.4869L134.393 26.0465H140.392L140.743 23.4258C140.839 22.7249 140.887 22.1958 140.887 21.8525Z" fill="#000082"/>
<path d="M130.676 8.09229C129.918 7.32797 129.018 6.95639 127.926 6.95639H120.355C119.263 6.95639 118.363 7.32797 117.605 8.09229C116.848 8.85558 116.48 9.77807 116.48 10.9126V12.8449C116.48 13.9792 116.848 14.9017 117.605 15.6649C118.363 16.4294 119.263 16.801 120.355 16.801H127.926C129.018 16.801 129.918 16.4294 130.676 15.6649C131.423 14.9118 131.801 13.963 131.801 12.8449V10.9126C131.801 9.79429 131.423 8.84546 130.676 8.09229ZM126.817 11.9827C126.817 12.304 126.702 12.585 126.473 12.8181C126.245 13.0513 125.97 13.1696 125.655 13.1696H122.772C122.457 13.1696 122.181 13.0512 121.953 12.8178C121.725 12.5856 121.609 12.3045 121.609 11.9827V11.3882C121.609 11.0669 121.725 10.7858 121.954 10.5527C122.182 10.3196 122.457 10.2014 122.772 10.2014H125.655C125.969 10.2014 126.244 10.3195 126.473 10.5526C126.702 10.7864 126.817 11.0674 126.817 11.3882V11.9827Z" fill="#000082"/>
<path d="M143.333 6.51039H140.887V0.297218H134.884V17.1577H140.887V10.4985H143.333V6.51039Z" fill="#000082"/>
<path d="M145.454 5.50427H161.067V1.75395H156.262V0H150.55V1.75395H145.454V5.50427Z" fill="#000082"/>
<path d="M170.007 21.8525V18.6098H146.473V22.3898H163.965L163.944 22.6451C163.924 22.887 163.895 23.1703 163.856 23.4869L163.513 26.0465H169.512L169.863 23.4258C169.958 22.7251 170.007 22.1959 170.007 21.8525Z" fill="#000082"/>
<path d="M157.046 6.95639H149.475C148.382 6.95639 147.483 7.32797 146.725 8.09229C145.968 8.85564 145.6 9.77813 145.6 10.9126V12.8449C145.6 13.9792 145.968 14.9015 146.725 15.6649C147.483 16.4294 148.383 16.801 149.475 16.801H157.046C158.138 16.801 159.037 16.4294 159.796 15.6649C160.543 14.9118 160.921 13.963 160.921 12.8449V10.9126C160.921 9.79429 160.543 8.84546 159.796 8.09229C159.038 7.32797 158.138 6.95639 157.046 6.95639ZM155.707 11.9827C155.707 12.2406 155.614 12.4635 155.43 12.6515C155.245 12.8403 155.027 12.934 154.775 12.934H151.892C151.639 12.934 151.421 12.8403 151.237 12.6515C151.052 12.4635 150.96 12.2406 150.96 11.9827V11.3882C150.96 11.1307 151.052 10.9078 151.237 10.7194C151.421 10.5311 151.639 10.4369 151.892 10.4369H154.775C155.027 10.4369 155.245 10.5311 155.43 10.7194C155.614 10.9078 155.707 11.1307 155.707 11.3882V11.9827Z" fill="#000082"/>
<path d="M172.453 6.51039H170.007V0.297218H164.003V17.1577H170.007V10.4985H172.453V6.51039Z" fill="#000082"/>
<path d="M192.516 12.2776H174.545V16.5333H180.223V18.4657H185.644V16.5333H192.516V12.2776Z" fill="#000082"/>
<path d="M176.176 19.7097V26.0465H200V21.9096H182.179V19.7097H176.176Z" fill="#000082"/>
<path d="M186.574 0.594436H179.002C177.912 0.594436 177.061 0.931023 176.401 1.62326C175.749 2.30776 175.418 3.1927 175.418 4.25344V7.01806C175.418 8.07818 175.758 8.96232 176.428 9.64591C177.098 10.3302 177.964 10.677 179.002 10.677H186.574C187.626 10.677 188.468 10.3398 189.148 9.64596C189.818 8.96198 190.158 8.07778 190.158 7.01806V4.25344C190.158 3.17916 189.827 2.31959 189.148 1.62554C188.468 0.931706 187.626 0.594436 186.574 0.594436ZM185.319 6.21545C185.319 6.51682 185.228 6.76283 185.048 6.94677C184.868 7.13065 184.627 7.22391 184.331 7.22391H181.71C181.415 7.22391 181.174 7.1306 180.994 6.94643C180.814 6.76363 180.723 6.51744 180.723 6.21545V5.35321C180.723 5.05178 180.814 4.80571 180.994 4.62189C181.174 4.43806 181.415 4.34481 181.71 4.34481H184.331C184.626 4.34481 184.867 4.43795 185.048 4.62172C185.228 4.80651 185.319 5.05241 185.319 5.35321V6.21545Z" fill="#000082"/>
<path d="M199.709 19.4467V0.297218H194.142V3.53759H191.23V7.823H194.142V19.4467H199.709Z" fill="#000082"/>
</svg>
