<svg width="40" height="40" viewBox="0 0 40 40" fill="none" xmlns="http://www.w3.org/2000/svg">
<path d="M6.53568 12.7071C5.67087 12.7205 4.95228 12.977 4.38193 13.4783C3.8113 13.9794 3.50118 14.6335 3.451 15.4353L3.33862 16.6011C3.26354 17.4028 3.46728 18.0557 3.94921 18.5575C4.43218 19.0594 5.10722 19.3094 5.97204 19.3094H9.35748C10.1854 19.3094 10.8841 19.0554 11.4548 18.5475C12.0251 18.0397 12.3538 17.3909 12.4425 16.6011L12.5362 15.4353C12.5861 14.8456 12.4731 14.3318 12.1979 13.893C12.1979 13.893 11.5307 12.7071 10.282 12.7071H6.53568ZM9.18868 16.5825C9.16304 16.7966 9.09056 16.9542 8.97229 17.0605C8.85263 17.1683 8.68013 17.2207 8.45508 17.2207H7.30746C7.08148 17.2207 6.91591 17.1683 6.8089 17.0605C6.70217 16.9542 6.66135 16.7966 6.68693 16.5825L6.78066 15.4911C6.79325 15.2784 6.86174 15.1175 6.98775 15.0111C7.11295 14.9048 7.28852 14.8516 7.51484 14.8516H8.66153C8.88653 14.8516 9.05037 14.9048 9.15074 15.0111C9.25048 15.1175 9.2943 15.2784 9.28206 15.4911L9.18868 16.5825Z" fill="#000082"/>
<path d="M20.9365 27.4364H17.5889L17.1372 32.5709H15.2002L14.9741 35.1867H25.3376L25.5447 32.5709H20.4857L20.9365 27.4364Z" fill="#000082"/>
<path d="M22.1535 14.0884H25.0315C25.8714 14.0884 26.5923 13.8186 27.1942 13.2801C27.7958 12.7417 28.1348 12.077 28.2103 11.2873L28.3798 9.29371C28.429 8.6655 28.3043 8.12045 28.0035 7.65642C28.0035 7.65642 27.3866 6.47051 26.254 6.47051H22.831C21.9775 6.47051 21.2476 6.73778 20.6393 7.2696C20.0307 7.80397 19.6957 8.47671 19.6326 9.29371L19.4641 11.2873C19.3883 12.1022 19.6047 12.7736 20.1125 13.2988C20.6207 13.8266 21.3 14.0884 22.1535 14.0884ZM22.9622 9.31028C22.9871 9.09759 23.0619 8.93802 23.1885 8.83297C23.3132 8.72602 23.4887 8.66948 23.7147 8.66948H24.5237C24.749 8.66948 24.9122 8.72602 25.0122 8.83297C25.1126 8.93802 25.1499 9.09759 25.1253 9.31028L24.9564 11.3052C24.9441 11.5192 24.8773 11.6788 24.759 11.7845C24.639 11.8928 24.4669 11.9439 24.2415 11.9439H23.4135C23.1885 11.9439 23.0217 11.8928 22.915 11.7845C22.8084 11.6788 22.7678 11.5192 22.7931 11.3052L22.9622 9.31028Z" fill="#000082"/>
<path d="M32.2726 14.7093H22.4168C22.354 14.7093 22.2979 14.72 22.237 14.7226L22.2386 14.7206H17.9535L18.0286 13.893L18.1264 12.6513H14.3802L13.7962 19.4223H17.54L17.7654 16.9588H19.6645C19.6551 17.0253 19.6382 17.0858 19.6326 17.1549L19.5388 18.1327C19.4754 18.9112 19.6581 19.5121 20.0849 19.9395C20.5104 20.3649 21.1196 20.579 21.9086 20.579H31.0318C31.8218 20.579 32.4699 20.3649 32.9781 19.9395C33.4859 19.5121 33.7711 18.9112 33.8346 18.1327L33.9091 17.1549C33.9592 16.6909 33.9091 16.29 33.7591 15.9497C33.7591 15.9497 33.2527 14.7093 32.2726 14.7093ZM30.26 17.8336C30.2221 18.1833 30.0217 18.3601 29.6587 18.3601H23.6582C23.282 18.3601 23.1128 18.1833 23.15 17.8336L23.2069 17.363C23.2311 17.0107 23.4259 16.8358 23.7895 16.8358H29.79C30.1659 16.8358 30.3414 17.0107 30.3165 17.363L30.26 17.8336Z" fill="#000082"/>
<path d="M20.0002 0C8.97229 0 0 8.97134 0 19.9993C0 31.0273 8.97229 40 20.0002 40C31.0281 40 40 31.028 40 19.9993C40 8.97059 31.0278 0 20.0002 0ZM29.5298 34.8868L30.0028 29.4306H32.2653L33.1075 26.6454H30.2473L30.5857 22.7347L30.6971 21.4923H27.2005L25.9339 36.6584C24.078 37.3211 22.0811 37.6854 20.0002 37.6854C12.6625 37.6854 6.35556 33.193 3.68131 26.8156H16.8959L17.5275 24.7828H7.1569L7.19409 24.2756H16.3288V24.2776H22.4603C22.4351 24.4764 22.3975 24.703 22.3474 24.9556L21.1438 30.9529H24.4921L25.6577 25.0852C25.7956 24.3839 25.8714 23.8887 25.8837 23.5989L26.0719 21.6452H17.3519L17.3891 21.2105L17.5057 19.9681H3.71457L3.54501 21.9809H13.4958L13.4386 22.4323H3.50719L3.23397 25.6176C2.64035 23.8515 2.31366 21.9629 2.31366 19.9993C2.31366 10.2469 10.2479 2.31326 20.0002 2.31326C24.1305 2.31326 27.9314 3.73976 30.9447 6.12221L30.8243 7.42905H29.1126L28.9056 9.74509H30.6362L30.5421 10.7967H28.8308L28.6241 13.1113H30.3351L30.2414 14.1642H34.0034L34.388 9.73308C36.4609 12.63 37.6861 16.173 37.6861 19.9993C37.6861 26.2439 34.4302 31.7386 29.5298 34.8868Z" fill="#000082"/>
</svg>
