<svg width="49" height="49" viewBox="0 0 49 49" fill="none" xmlns="http://www.w3.org/2000/svg">
<path d="M24.5 0H24.49C10.9645 0 0 10.9645 0 24.49V24.5C0 38.0255 10.9645 48.99 24.49 48.99H24.5C38.0255 48.99 48.99 38.0255 48.99 24.5V24.49C48.99 10.9645 38.0255 0 24.5 0Z" fill="#B0E000"/>
<path d="M34.89 35.34C34.16 35.42 33.41 35.43 32.7 35.43C27.11 35.43 21.53 35.43 15.94 35.42C14.18 35.42 12.27 35.36 10.91 34.25C9.38 32.99 9.06 30.8 8.94 28.82C8.77 26.11 8.75 23.39 8.9 20.67C8.98 19.18 9.11 17.65 9.76 16.3C10.22 15.33 10.99 14.46 11.97 14C13.11 13.47 14.31 13.56 15.55 13.56C18.5 13.56 21.45 13.56 24.4 13.56C27.47 13.56 30.54 13.56 33.6 13.56C35.05 13.56 36.6 13.59 37.79 14.43C39.32 15.51 39.73 17.57 39.92 19.43C40.27 22.86 40.28 26.32 39.93 29.75C39.79 31.16 39.55 32.66 38.62 33.73C37.7 34.79 36.33 35.2 34.89 35.36V35.34Z" fill="white"/>
<path d="M29.48 24.49L21.16 19.68V29.3L29.48 24.49Z" fill="#B0E000"/>
</svg>
